<?xml version="1.0" encoding="UTF-8"?>
<svg width="256" height="256" viewBox="0 0 256 256" fill="none" xmlns="http://www.w3.org/2000/svg" aria-hidden="true" focusable="false">
  <!-- Simplified OpenAI knot logo (monochrome) -->
  <path d="M128 16c-23.2 0-44.2 8.6-60.4 22.8C53.7 49.5 43.5 66.9 39.3 86.2c-17.8 7.7-31 24.7-33.2 45-2.9 26.5 12.1 50.9 36.3 60.7 2.8 20.6 13.5 39.3 30.1 52 20.6 15.9 48.8 20 73.2 10.8 22 10.6 48.6 7.7 68.9-8.3 18.9-14.7 29.6-37.3 28.9-60.7 16.5-12.2 26.9-31.4 27-52.1 0.1-34.1-26.1-62.7-59.4-66.4C202.9 37.1 167.9 16 128 16zm-17.7 56.7l32.8 18.9 18.9-10.9c13.5 2.2 24 13.9 24 27.9v21.9l18.9 10.9c9.8 5.7 15.9 16.1 15.9 27.4 0 11.3-6 21.7-15.9 27.4l-18.9 10.9v21.9c0 11.3-6 21.7-15.9 27.4-9.8 5.7-21.9 5.7-31.7 0l-18.9-10.9-18.9 10.9c-9.8 5.7-21.9 5.7-31.7 0-9.8-5.7-15.9-16.1-15.9-27.4v-21.9l-18.9-10.9C37.6 164.7 31.6 154.3 31.6 143c0-11.3 6-21.7 15.9-27.4l18.9-10.9V82.8c0-11.3 6-21.7 15.9-27.4 9.8-5.7 21.9-5.7 31.7 0zm0 23.2c-3.5-2-7.8-2-11.3 0-3.5 2-5.7 5.7-5.7 9.7v31.1l-27.4 15.9c-3.5 2-5.7 5.7-5.7 9.7s2.2 7.7 5.7 9.7l27.4 15.9v31.1c0 4 2.2 7.7 5.7 9.7 3.5 2 7.8 2 11.3 0l27.4-15.9 27.4 15.9c3.5 2 7.8 2 11.3 0 3.5-2 5.7-5.7 5.7-9.7v-31.1l27.4-15.9c3.5-2 5.7-5.7 5.7-9.7s-2.2-7.7-5.7-9.7l-27.4-15.9V105c0-4-2.2-7.7-5.7-9.7-3.5-2-7.8-2-11.3 0l-27.4 15.9-27.4-15.9z" fill="currentColor"/>
</svg>
